<svg xmlns="http://www.w3.org/2000/svg" shape-rendering="geometricPrecision" text-rendering="geometricPrecision" image-rendering="optimizeQuality" fill-rule="evenodd" clip-rule="evenodd" viewBox="0 0 448 511.96"><path fill-rule="nonzero" d="M198.15 257.89c21.93 7.32 52.45 11.85 86.37 11.85 33.91 0 64.43-4.53 86.36-11.85 19.25-6.42 31.16-14.2 31.16-21.82 0-7.6-11.91-15.38-31.16-21.81-2.74-.91-5.63-1.79-8.64-2.61l26.54-8.28c16.76 7.57 27.46 17.37 29.58 28.57.31.87.48 1.82.48 2.8v230.3c0 15.96-30.5 30.09-42.67 34.15-23.63 7.89-56.05 12.77-91.65 12.77-35.62 0-68.04-4.88-91.66-12.77-12.45-4.16-42.41-17.82-42.41-34.15v-5.35c0-74.54-.17-149.09-.17-223.62 0-5 1.68-9.77 4.83-14.22l11.64-11.01c6.87-4.73 15.71-8.9 26.11-12.37 17.68-5.91 40.3-10.13 65.49-11.87a409.098 409.098 0 0 1 9.98 16.16c-27.38 1.19-51.8 5.37-70.18 11.5-40.85 13.63-41.97 29.62 0 43.63zm-17.1-148.14 30.11 31.56L37.09 306.02C16.2 325.81-13.74 294.06 7 274.44l174.05-164.69zm184.52-23.38 19.86 7.85-47.01 89.66 27.15-97.51zm73.94 57.92 8.49 19.6-96.64 30.15 88.15-49.75zM232.62 50.21l37.17 38.97a3.493 3.493 0 0 1-.12 4.94L264.56 99c36.64 47.7 53.7 103.43 50.11 153.95-16.42-43.15-42.5-87.09-77.47-127.86l-12.34 11.77a3.493 3.493 0 0 1-4.94-.12l-37.17-38.96a3.505 3.505 0 0 1 .12-4.95l11.96-11.4C154.82 44.99 111.31 17.59 68.43.24c51.08-2.62 106.95 16.3 153.87 54.99l5.38-5.14a3.493 3.493 0 0 1 4.94.12zM362.8 445.07c7.26 0 13.14 5.89 13.14 13.14 0 7.26-5.88 13.14-13.14 13.14-7.25 0-13.14-5.88-13.14-13.14 0-7.25 5.89-13.14 13.14-13.14zm0-74.26c7.26 0 13.14 5.88 13.14 13.14 0 7.25-5.88 13.14-13.14 13.14-7.25 0-13.14-5.89-13.14-13.14 0-7.26 5.89-13.14 13.14-13.14zm0-77.35c7.26 0 13.14 5.88 13.14 13.14 0 7.25-5.88 13.14-13.14 13.14-7.25 0-13.14-5.89-13.14-13.14 0-7.26 5.89-13.14 13.14-13.14zm39.28 119.49c-6.85 4.69-15.58 8.83-25.91 12.27-23.63 7.89-56.05 12.77-91.65 12.77-35.62 0-68.04-4.88-91.66-12.77-10.19-3.4-18.88-7.47-25.69-12.09v50.04c1.51 7.09 13.07 14.25 30.98 20.23 21.93 7.32 52.45 11.85 86.37 11.85 33.91 0 64.43-4.53 86.36-11.85 13.29-4.44 23.09-9.52 27.87-14.75 3.95-4.31 3.33-7.15 3.33-12.31v-43.39zM167.17 389.2c1.51 7.09 13.07 14.25 30.98 20.23 21.93 7.32 52.45 11.85 86.37 11.85 33.91 0 64.43-4.53 86.36-11.85 19.25-6.43 31.16-14.21 31.16-21.82h.09v-48.63c-6.86 4.69-15.63 8.82-25.96 12.27-23.63 7.89-56.05 12.76-91.65 12.76-35.62 0-68.04-4.87-91.66-12.76-10.19-3.4-18.88-7.47-25.69-12.09v50.04zm0-73.97c1.51 7.09 13.07 14.25 30.98 20.22 21.93 7.33 52.45 11.86 86.37 11.86 33.91 0 64.43-4.53 86.36-11.86 19.25-6.42 31.16-14.2 31.16-21.81h.09v-52.22c-6.86 4.69-15.63 8.82-25.96 12.27-23.63 7.88-56.04 12.76-91.65 12.76-35.62 0-68.04-4.88-91.66-12.76-10.19-3.4-18.88-7.48-25.69-12.09v53.63z"/></svg>