<?xml version="1.0" encoding="utf-8"?><svg version="1.1" id="Layer_1" xmlns="http://www.w3.org/2000/svg" xmlns:xlink="http://www.w3.org/1999/xlink" x="0px" y="0px" width="122.879px" height="122.891px" viewBox="0 0 122.879 122.891" enable-background="new 0 0 122.879 122.891" xml:space="preserve"><g><path d="M89.767,18.578c3.848,0,7.332,1.561,9.854,4.082c2.521,2.522,4.082,6.007,4.082,9.855s-1.561,7.332-4.082,9.854 c-2.522,2.522-6.007,4.082-9.854,4.082c-3.849,0-7.333-1.56-9.854-4.082c-2.522-2.522-4.082-6.006-4.082-9.854 s1.56-7.333,4.082-9.855C82.434,20.138,85.918,18.578,89.767,18.578L89.767,18.578z M122.04,56.704l-65.337,65.337 c-1.132,1.133-2.969,1.133-4.101,0L0.849,70.287c-1.132-1.131-1.132-2.967,0-4.1L66.186,0.85C66.752,0.284,67.494,0,68.236,0v0 h50.051c1.602,0,2.9,1.298,2.9,2.9c0,0.048-0.002,0.097-0.004,0.145l1.694,51.517c0.026,0.83-0.301,1.589-0.845,2.134 L122.04,56.704L122.04,56.704z M54.652,115.889l62.406-62.407L115.49,5.8H69.438L7.001,68.238L54.652,115.889L54.652,115.889z M96.244,26.037c-1.657-1.657-3.948-2.683-6.478-2.683c-2.53,0-4.82,1.025-6.478,2.683c-1.658,1.657-2.684,3.948-2.684,6.478 s1.025,4.82,2.684,6.478c1.657,1.658,3.947,2.683,6.478,2.683c2.529,0,4.82-1.025,6.478-2.683s2.683-3.948,2.683-6.478 S97.901,27.694,96.244,26.037L96.244,26.037z"/></g></svg>