<svg width="600" height="600" xmlns="http://www.w3.org/2000/svg">
 <g id="Layer_1">
  <title>Layer 1</title>
  <path stroke-width="5" id="svg_1" d="m295.03878,1.69149c-5.51802,1.64049 -8.35159,3.87753 -11.93085,9.24641c-1.49136,2.23703 -35.64341,98.87691 -76.05916,214.60615l-73.37472,210.57949l-14.76443,6.11456c-32.21329,13.57134 -48.76735,28.78317 -55.03104,50.55697c-7.15851,24.90565 5.07061,50.10957 32.6607,67.26016c65.61967,40.71402 239.5118,51.75006 352.85487,22.22121c45.03896,-11.78171 73.07645,-29.08145 84.41076,-52.3466c3.72839,-7.60592 4.32493,-10.29036 4.32493,-22.07207c0,-12.22912 -0.44741,-14.46615 -4.92148,-23.41429c-7.00937,-14.46615 -21.47553,-27.29182 -41.01229,-36.8365c-8.35159,-4.02666 -17.74714,-8.05332 -20.72985,-8.94814c-4.77234,-1.64049 -5.81629,-2.68444 -8.35159,-10.29036c-57.26808,-167.18103 -142.87192,-413.85133 -144.81068,-417.13232c-4.32493,-7.60592 -15.0627,-11.93085 -23.26516,-9.54468l-0.00001,0.00001zm17.598,198.35037c7.15851,5.81629 12.9748,11.03604 12.9748,11.63258c0,0.59654 -2.83358,1.78963 -6.41283,2.68444c-3.57925,1.04395 -10.14122,3.13185 -14.76443,4.92148l-8.05332,2.98271l-3.57925,15.36097c-1.93876,8.35159 -3.87753,15.95751 -4.32493,17.00146c-0.59654,1.04395 -5.21975,-3.57925 -11.33431,-11.48344l-10.43949,-13.27307l-8.94814,0.89481c-4.92148,0.44741 -12.07998,1.34222 -15.95751,1.93876c-4.02666,0.59654 -7.15851,0.44741 -7.15851,-0.14914c0,-0.74568 3.43012,-7.30765 7.45678,-14.76443c4.1758,-7.45678 7.45678,-14.31702 7.45678,-15.5101c0,-1.19308 -2.38617,-7.75505 -5.21975,-14.46615c-2.83358,-6.86024 -5.21975,-12.9748 -5.21975,-13.57134c0,-1.49136 16.85232,-1.49136 24.75651,0.14914c5.07061,0.89481 6.7111,0.59654 9.84295,-1.93876c2.0879,-1.78963 8.05332,-6.7111 13.27307,-11.18517l9.54468,-8.05332l1.49136,18.04541l1.49136,18.19455l13.12393,10.58863l0,-0.00002zm45.6355,88.58656c8.20246,15.65924 10.8869,18.64195 17.00146,18.64195c5.36888,0.14914 23.11602,3.72839 24.45824,4.92148c0.44741,0.59654 -1.93876,6.86024 -5.51802,14.16788c-3.87753,8.20246 -5.96542,14.46615 -5.36888,16.10665c0.44741,1.64049 4.6232,9.54468 9.09727,17.598c4.47407,8.20246 7.90419,15.0627 7.60592,15.36097c-0.29827,0.29827 -10.14122,-2.0879 -21.7738,-5.36888l-21.32639,-5.96542l-19.38763,11.03604c-10.73776,6.11456 -19.6859,10.8869 -19.98417,10.73776c-0.29827,-0.44741 2.98271,-24.90565 4.77234,-34.15206c0.59654,-3.72839 -0.74568,-5.21975 -11.18517,-14.01875c-6.56197,-5.51802 -11.63258,-10.43949 -11.18517,-10.8869c0.29827,-0.59654 7.90419,-4.1758 17.00146,-8.20246l16.25578,-7.15851l3.72839,-9.84295c1.93876,-5.51802 4.47407,-13.57134 5.66715,-17.89627c1.04395,-4.1758 2.23703,-7.75505 2.68444,-7.75505c0.44741,0 3.87753,5.66715 7.45678,12.67653l0,-0.00001zm-138.69612,39.67007c-4.02666,10.14122 -5.36888,31.61675 -2.83358,43.5476c2.83358,14.01875 11.18517,28.93231 22.37034,39.96834c24.15997,23.8617 58.01375,30.12539 89.92878,16.40492c3.87753,-1.64049 7.00937,-2.38617 7.00937,-1.78963c0,2.98271 -13.72048,19.23849 -20.43158,24.30911c-33.10811,25.05478 -77.99793,22.07207 -107.07937,-7.00937c-28.63404,-28.63404 -31.16934,-74.56781 -5.81629,-106.93024c4.92148,-6.41283 18.34368,-18.19455 19.38763,-17.1506c0.29827,0.29827 -0.89481,4.1758 -2.53531,8.64987l0.00001,0zm260.98733,154.20623c0.59654,22.66861 -51.75006,42.05624 -131.53761,48.61821c-26.09873,2.23703 -99.17518,0.89481 -121.8438,-2.23703c-51.60092,-7.15851 -86.20039,-18.34368 -100.96481,-32.6607c-7.30765,-7.00937 -9.09727,-13.12393 -6.2637,-21.02812c1.93876,-5.51802 4.32493,-7.15851 4.32493,-3.13185c0,3.57925 8.64987,12.37826 16.85232,16.85232c17.89627,10.14122 43.5476,17.44887 79.34015,22.51948c108.57073,15.65924 242.34538,-4.32493 254.5745,-38.02958l1.78963,-5.21975l1.78963,4.92148c1.04395,2.68444 1.93876,6.86024 1.93876,9.39554z" stroke="#000000" fill="#f77300"/>
  <path fill="#f77300" stroke="null" d="m289.16667,11.66667l-152.5,464.16667l324.16667,-2.5l-150.83333,-462.5l-20.83333,0.83333l-0.00001,0z" id="svg_2"/>
  <g stroke-width="2" stroke="null" id="svg_6">
   <path stroke="#000000" id="svg_7" d="m237.38412,429.88863l49.2141,-146.44401l-49.2141,-33.45982l0,179.90381l0,0.00002zm155.6473,-90.57396l0,-83.14208l-155.6473,173.71605l155.6473,-90.57396zm-155.6473,-171.34243l0,70.17722l101.57021,51.64664l47.20891,-39.8113l-148.77912,-82.01258l0,0.00002z" fill="#ffffff"/>
  </g>
  <text stroke-width="0" stroke="#000000" fill="#ffffff" x="208" y="498.66666" id="svg_3" font-size="75" font-family="'Exo'" text-anchor="start" xml:space="preserve" font-weight="bold">3</text>
  <text stroke="null" fill="#ffffff" x="269.66666" y="503.66667" id="svg_4" stroke-width="0" font-size="75" font-family="'Exo'" text-anchor="start" xml:space="preserve" font-weight="bold">6</text>
  <text stroke="null" fill="#ffffff" x="335.66666" y="498.83333" id="svg_5" stroke-width="0" font-size="75" font-family="'Exo'" text-anchor="start" xml:space="preserve" font-weight="bold">5</text>
 </g>

</svg>